<svg width="392" height="189" viewBox="0 0 392 189" fill="none" xmlns="http://www.w3.org/2000/svg">
<mask id="mask0_17_115" style="mask-type:alpha" maskUnits="userSpaceOnUse" x="-7" y="-10" width="199" height="199">
<circle cx="92.5" cy="89.5" r="99.5" fill="#D9D9D9"/>
</mask>
<g mask="url(#mask0_17_115)">
<path d="M58.5 24.5848L66 49.5848C68.4 47.5848 74.6667 48.7515 77.5 49.5848C90.3 34.3848 102.833 43.2515 107.5 49.5848C109.9 46.7848 116.5 49.0848 119.5 50.5848C119.5 32.5848 125.833 25.7515 129 24.5848C147 33.7848 143.167 58.4182 139 69.5848C145.4 75.9848 145 88.9182 144 94.5848L140.5 111.085C145.7 125.485 137 144.085 132 151.585C132.879 155.182 134.224 169.196 135 180.5C97.6726 196.168 59.2272 187.028 45.5 180.5L50 148.085C38 136.485 42 119.585 45.5 112.585C44 110.252 40.8 103.385 40 94.5848C39.2 85.7848 43.3333 74.2515 45.5 69.5848C35.1 37.5848 49.8333 26.2515 58.5 24.5848Z" fill="#9ED957"/>
<path d="M68 131.585C68 125.995 69.5 120.585 71.5 119.085C75.5 116.085 82.5 118.585 86.5 108.085C88.4901 102.861 99 102.085 103 108.085C107 114.085 111 114.585 116.5 117.585C122.831 121.038 122 129.085 122 131.585C122 137.085 118.5 154.585 95 154.585C74.5 154.585 68 139.585 68 131.585Z" fill="#FDFCF7"/>
<path d="M87.5 122.085L95.5 128.085M95.5 128.085L103.5 122.085M95.5 128.085V135.585M95.5 135.585C95.5 139.585 86.5 144.085 81 136.585M95.5 135.585C95.5 139.585 103.1 144.585 109.5 136.585" stroke="#0A0A0A" stroke-width="6" stroke-linecap="round"/>
<path d="M45.5 68.0848C41.6667 60.2514 37.5999 40.9847 52 26.5848C56 22.5848 60 23.0848 61 29.0848C62.3334 34.9181 65 45.3848 65 48.5848" stroke="#0A0A0A" stroke-width="9" stroke-linecap="round"/>
<path d="M43 101C43 89 53 82 59 82H125.5C131.9 82 142 87.5 142 101C142 111.8 133.5 119 129.5 119H114.5C112.5 119 108 117.5 105 111.5C102.6 106.7 97.6667 105.5 95.5 105.5C92.6667 105.333 86.6 106.3 85 111.5C83.4 116.7 77.6667 118.5 75 119H59C53.5 119 43 113 43 101Z" fill="#9ED957" stroke="#0A0A0A" stroke-width="7" stroke-linecap="round"/>
<path d="M70 90.0848L65 107.085" stroke="#0A0A0A" stroke-width="3" stroke-linecap="round"/>
<path d="M41 88.0848C38.5 80.5848 42.4 67.8848 56 65.0848C55.5 58.5848 61.5 45.5848 77.5 49.5848C85.5 38.5848 101 39.0848 107 49.5848C116 45.5848 130 55.0848 129.5 65.0848C140 66.0848 147.5 80.5848 144 90.0848M44.5 178.5L52 150.585C46.5 144.751 35.5 127.4 45.5 113M139.5 113.5C143.833 119 147.6 132.585 132 150.585C133.833 164.251 135 166.5 136.5 178.5" stroke="#0A0A0A" stroke-width="9" stroke-linecap="round"/>
<rect x="30" y="85.0848" width="15" height="28" rx="6" fill="#0A0A0A"/>
<rect x="140" y="85.0848" width="15" height="28" rx="6" fill="#0A0A0A"/>
<path d="M139 69.0848C143.167 61.2515 147.7 41.7848 132.5 26.5848C129 23.0848 125.833 24.4181 124 29.0848C122.167 33.7515 120.4 45.5848 120 49.5848" stroke="#0A0A0A" stroke-width="9"/>
<circle cx="122.5" cy="99.5848" r="6.5" fill="#0A0A0A"/>
<path d="M59.5 94.0848L54 99.0848L59.5 104.085" stroke="#0A0A0A" stroke-width="3" stroke-linecap="round"/>
<path d="M74 94.0848L79 99.0848L74 104.085" stroke="#0A0A0A" stroke-width="3" stroke-linecap="round"/>
</g>
<path d="M201.281 140.469C197.297 140.469 195 137.938 195 133.625V85.25C195 78.5938 197.531 76.0156 204.141 76.0156H220.312C233.625 76.0156 242.203 84.3594 242.203 97.0156C242.203 110.234 233.531 118.062 219.797 118.062H207.656V133.625C207.656 137.938 205.312 140.469 201.281 140.469ZM207.656 108.219H215.766C225.609 108.219 229.594 105.359 229.594 97.2031C229.594 90.1719 225.656 86.1406 218.719 86.1406H207.656V108.219Z" fill="#0A0A0A"/>
<path d="M277.547 133.672C275.016 138.125 270.094 140.656 264 140.656C254.297 140.656 247.734 134.562 247.734 125.516C247.734 116.328 254.531 110.656 265.828 110.656H277.641V106.578C277.641 101.562 274.5 98.9375 268.828 98.9375C265.078 98.9375 262.406 100.344 259.641 102.828C258.234 103.953 256.922 104.469 254.906 104.469C252.188 104.469 250.5 102.641 250.5 100.109C250.5 97.2031 252.516 94.25 256.875 92.0469C260.016 90.4062 264.188 89.4688 269.625 89.4688C282.656 89.4688 289.969 95.6562 289.969 106.672V133.859C289.969 138.078 287.812 140.469 283.969 140.469C280.688 140.469 278.531 138.641 278.156 135.406V133.672H277.547ZM260.016 124.766C260.016 128.891 263.297 131.75 268.125 131.75C273.469 131.75 277.641 128.094 277.641 123.406V118.25H268.078C263.016 118.25 260.016 120.688 260.016 124.766Z" fill="#0A0A0A"/>
<path d="M299.625 118.391V111.406C299.625 98.1875 307.734 89.1875 322.031 89.1875C326.906 89.1875 331.875 90.3125 335.625 92.7969C338.672 94.7656 341.109 97.7188 341.109 100.859C341.109 103.719 339.234 105.922 336.188 105.922C333.797 105.922 332.484 104.516 331.219 103.297C329.062 100.766 326.344 99.3125 322.688 99.3125C315.75 99.3125 312.328 104.469 312.328 112.062V117.781C312.328 125.562 315.328 130.953 322.781 130.953C326.203 130.953 329.156 129.688 331.641 126.828C332.812 125.703 334.172 124.25 336.469 124.25C339.234 124.25 341.25 126.078 341.25 129.219C341.25 132.406 338.859 135.547 335.25 137.75C331.406 140.047 326.812 141.078 322.078 141.078C308.062 141.078 299.625 132.641 299.625 118.391Z" fill="#0A0A0A"/>
<path d="M378.984 133.672C376.453 138.125 371.531 140.656 365.438 140.656C355.734 140.656 349.172 134.562 349.172 125.516C349.172 116.328 355.969 110.656 367.266 110.656H379.078V106.578C379.078 101.562 375.938 98.9375 370.266 98.9375C366.516 98.9375 363.844 100.344 361.078 102.828C359.672 103.953 358.359 104.469 356.344 104.469C353.625 104.469 351.938 102.641 351.938 100.109C351.938 97.2031 353.953 94.25 358.312 92.0469C361.453 90.4062 365.625 89.4688 371.062 89.4688C384.094 89.4688 391.406 95.6562 391.406 106.672V133.859C391.406 138.078 389.25 140.469 385.406 140.469C382.125 140.469 379.969 138.641 379.594 135.406V133.672H378.984ZM361.453 124.766C361.453 128.891 364.734 131.75 369.562 131.75C374.906 131.75 379.078 128.094 379.078 123.406V118.25H369.516C364.453 118.25 361.453 120.688 361.453 124.766Z" fill="#0A0A0A"/>
</svg>
