<svg width="199" height="199" viewBox="0 0 199 199" fill="none" xmlns="http://www.w3.org/2000/svg">
<circle cx="99.5" cy="99.5" r="99.5" fill="#FDFCF7"/>
<mask id="mask0_14_96" style="mask-type:alpha" maskUnits="userSpaceOnUse" x="0" y="0" width="199" height="199">
<circle cx="99.5" cy="99.5" r="99.5" fill="#FDFCF7"/>
</mask>
<g mask="url(#mask0_14_96)">
<path d="M65.5 34.5848L73 59.5848C75.4 57.5848 81.6667 58.7515 84.5 59.5848C97.3 44.3848 109.833 53.2515 114.5 59.5848C116.9 56.7848 123.5 59.0848 126.5 60.5848C126.5 42.5848 132.833 35.7515 136 34.5848C154 43.7848 150.167 68.4181 146 79.5848C152.4 85.9848 152 98.9181 151 104.585L147.5 121.085C152.7 135.485 144 154.085 139 161.585C139.879 165.182 141.224 179.196 142 190.5C104.673 206.168 66.2272 197.028 52.5 190.5L57 158.085C45 146.485 49 129.585 52.5 122.585C51 120.251 47.8 113.385 47 104.585C46.2 95.7848 50.3333 84.2515 52.5 79.5848C42.1 47.5848 56.8333 36.2515 65.5 34.5848Z" fill="#9ED957"/>
<path d="M75 141.585C75 135.995 76.5 130.585 78.5 129.085C82.5 126.085 89.5 128.585 93.5 118.085C95.4901 112.861 106 112.085 110 118.085C114 124.085 118 124.585 123.5 127.585C129.831 131.038 129 139.085 129 141.585C129 147.085 125.5 164.585 102 164.585C81.5 164.585 75 149.585 75 141.585Z" fill="#FDFCF7"/>
<path d="M94.5 132.085L102.5 138.085M102.5 138.085L110.5 132.085M102.5 138.085V145.585M102.5 145.585C102.5 149.585 93.5 154.085 88 146.585M102.5 145.585C102.5 149.585 110.1 154.585 116.5 146.585" stroke="#0A0A0A" stroke-width="6" stroke-linecap="round"/>
<path d="M52.5 78.0848C48.6667 70.2514 44.5999 50.9847 59 36.5848C63 32.5848 67 33.0848 68 39.0848C69.3334 44.9181 72 55.3848 72 58.5848" stroke="#0A0A0A" stroke-width="9" stroke-linecap="round"/>
<path d="M50 111C50 99 60 92 66 92H132.5C138.9 92 149 97.5 149 111C149 121.8 140.5 129 136.5 129H121.5C119.5 129 115 127.5 112 121.5C109.6 116.7 104.667 115.5 102.5 115.5C99.6667 115.333 93.6 116.3 92 121.5C90.4 126.7 84.6667 128.5 82 129H66C60.5 129 50 123 50 111Z" fill="#9ED957" stroke="#0A0A0A" stroke-width="7" stroke-linecap="round"/>
<path d="M77 100.085L72 117.085" stroke="#0A0A0A" stroke-width="3" stroke-linecap="round"/>
<path d="M48 98.0848C45.5 90.5848 49.4 77.8848 63 75.0848C62.5 68.5848 68.5 55.5848 84.5 59.5848C92.5 48.5848 108 49.0848 114 59.5848C123 55.5848 137 65.0848 136.5 75.0848C147 76.0848 154.5 90.5848 151 100.085M51.5 188.5L59 160.585C53.5 154.751 42.5 137.4 52.5 123M146.5 123.5C150.833 129 154.6 142.585 139 160.585C140.833 174.251 142 176.5 143.5 188.5" stroke="#0A0A0A" stroke-width="9" stroke-linecap="round"/>
<rect x="37" y="95.0848" width="15" height="28" rx="6" fill="#0A0A0A"/>
<rect x="147" y="95.0848" width="15" height="28" rx="6" fill="#0A0A0A"/>
<path d="M146 79.0848C150.167 71.2515 154.7 51.7848 139.5 36.5848C136 33.0848 132.833 34.4181 131 39.0848C129.167 43.7515 127.4 55.5848 127 59.5848" stroke="#0A0A0A" stroke-width="9"/>
<circle cx="129.5" cy="109.585" r="6.5" fill="#0A0A0A"/>
<path d="M66.5 104.085L61 109.085L66.5 114.085" stroke="#0A0A0A" stroke-width="3" stroke-linecap="round"/>
<path d="M81 104.085L86 109.085L81 114.085" stroke="#0A0A0A" stroke-width="3" stroke-linecap="round"/>
</g>
</svg>
